<svg xmlns="http://www.w3.org/2000/svg" width="1414" height="1142" viewBox="0 0 1414 1142" fill="none">
    <path d="M1194.66 570.826C1185.98 605.128 1161.67 633.789 1125.07 656.233C1088.46 678.679 1039.59 694.887 981.848 704.283C866.368 723.073 715.519 714.595 556.683 674.372C397.847 634.15 261.144 569.81 168.526 498.322C122.216 462.578 86.9478 425.062 65.4373 387.899C43.9285 350.739 36.1911 313.964 44.8777 279.661C53.5642 245.359 77.8723 216.698 114.475 194.254C151.08 171.808 199.954 155.6 257.694 146.204C373.174 127.414 524.023 135.892 682.859 176.115C841.695 216.337 978.398 280.677 1071.02 352.165C1117.33 387.909 1152.59 425.425 1174.1 462.588C1195.61 499.748 1203.35 536.523 1194.66 570.826Z" stroke="url(#paint0_linear_3_717)"/>
    <path d="M1532.88 624.193C1519.18 678.294 1480.84 723.474 1423.17 758.837C1365.5 794.203 1288.51 819.732 1197.57 834.528C1015.71 864.12 778.164 850.767 528.054 787.431C277.945 724.095 62.6741 622.78 -83.1871 510.196C-156.118 453.904 -211.677 394.81 -245.569 336.256C-279.459 277.706 -291.669 219.727 -277.969 165.626C-264.269 111.525 -225.936 66.3453 -168.263 30.9816C-110.588 -4.38372 -33.5997 -29.9127 57.3336 -44.709C239.198 -74.3014 476.744 -60.948 726.854 2.38808C976.963 65.7242 1192.23 167.039 1338.1 279.623C1411.03 335.915 1466.59 395.009 1500.48 453.563C1534.37 512.113 1546.58 570.092 1532.88 624.193Z" stroke="url(#paint1_linear_3_717)"/>
    <path d="M1772.38 717.123C1754.93 786.03 1706.11 843.564 1632.68 888.589C1559.25 933.617 1461.23 966.116 1345.48 984.951C1113.97 1022.62 811.584 1005.62 493.216 925.001C174.848 844.379 -99.1797 715.413 -284.858 572.096C-377.699 500.437 -448.431 425.205 -491.583 350.655C-534.733 276.107 -550.287 202.272 -532.838 133.365C-515.388 64.4573 -466.566 6.92394 -393.137 -38.1017C-319.704 -83.129 -221.69 -115.628 -105.934 -134.464C125.577 -172.134 427.959 -155.135 746.327 -74.5132C1064.69 6.10825 1338.72 135.075 1524.4 278.392C1617.24 350.051 1687.97 425.283 1731.13 499.833C1774.28 574.38 1789.83 648.216 1772.38 717.123Z" stroke="url(#paint2_linear_3_717)"/>
    <defs>
        <linearGradient id="paint0_linear_3_717" x1="84.6947" y1="259.795" x2="1080.75" y2="673.025" gradientUnits="userSpaceOnUse">
            <stop stop-color="#484848" stop-opacity="0.2"/>
            <stop offset="0.491388" stop-color="#484848" stop-opacity="0.36"/>
            <stop offset="1" stop-color="#484848" stop-opacity="0.2"/>
        </linearGradient>
        <linearGradient id="paint1_linear_3_717" x1="-215.001" y1="134.419" x2="1353.25" y2="785.03" gradientUnits="userSpaceOnUse">
            <stop stop-color="#484848" stop-opacity="0.2"/>
            <stop offset="0.491388" stop-color="#484848" stop-opacity="0.36"/>
            <stop offset="1" stop-color="#484848" stop-opacity="0.2"/>
        </linearGradient>
        <linearGradient id="paint2_linear_3_717" x1="-452.555" y1="93.6755" x2="1543.61" y2="921.813" gradientUnits="userSpaceOnUse">
            <stop stop-color="#484848" stop-opacity="0.2"/>
            <stop offset="0.491388" stop-color="#484848" stop-opacity="0.36"/>
            <stop offset="1" stop-color="#484848" stop-opacity="0.2"/>
        </linearGradient>
    </defs>
</svg>