<svg width="20" height="20" viewBox="0 0 20 20" fill="none" xmlns="http://www.w3.org/2000/svg">
<g clip-path="url(#clip0_1_2760)">
<path d="M15.3033 4.69667L14.125 5.875C13.1708 4.92066 11.9151 4.32672 10.5721 4.19437C9.22902 4.06201 7.88162 4.39944 6.75945 5.14916C5.63728 5.89887 4.80978 7.01449 4.41795 8.30592C4.02612 9.59735 4.09419 10.9847 4.61057 12.2316C5.12695 13.4784 6.05969 14.5077 7.24986 15.1439C8.44003 15.7802 9.81399 15.9841 11.1376 15.7209C12.4613 15.4577 13.6527 14.7437 14.509 13.7005C15.3652 12.6573 15.8332 11.3496 15.8333 10H17.5C17.5 11.7352 16.8983 13.4166 15.7975 14.7579C14.6968 16.0992 13.1649 17.0173 11.4631 17.3558C9.76129 17.6943 7.99475 17.4323 6.46448 16.6143C4.9342 15.7964 3.73489 14.4731 3.07088 12.87C2.40688 11.2669 2.31926 9.48319 2.82296 7.82275C3.32667 6.1623 4.39052 4.72788 5.83327 3.76389C7.27601 2.79989 9.00837 2.36597 10.7352 2.53605C12.462 2.70614 14.0764 3.46971 15.3033 4.69667Z" fill="#AA1CF9"/>
</g>
<defs>
<clipPath id="clip0_1_2760">
<rect width="20" height="20" fill="white"/>
</clipPath>
</defs>
</svg>
