<svg width="279" height="78" viewBox="0 0 279 78" fill="none" xmlns="http://www.w3.org/2000/svg">
<path d="M12.0219 68.8271C23.5811 68.4958 30.9781 65.4457 36.2593 61.0898C41.3494 56.8916 44.4332 51.5085 47.3865 46.3531C47.4863 46.1789 47.5859 46.005 47.6855 45.8314C50.7471 40.4926 53.7316 35.4605 58.7211 32.0391C63.6902 28.6317 70.7186 26.7802 81.9461 27.9971C92.3353 29.1231 102.63 32.4431 112.995 35.7857C114.655 36.3212 116.317 36.8572 117.982 37.3849C130.01 41.1979 142.153 44.5684 154.523 43.9995C172.57 43.1694 186.033 37.5454 198.409 30.3692C203.474 27.4324 208.363 24.2319 213.303 20.9978C214.391 20.2856 215.482 19.5718 216.577 18.8589C222.652 14.9045 228.887 10.9694 235.729 7.44448C250.412 -0.119896 265.34 0.819084 273.215 2.14007C276.377 2.67045 278.5 5.49868 278.5 8.77242V106.756C278.5 110.898 275.142 114.256 271 114.256L8 114.256C3.85786 114.256 0.5 110.898 0.5 106.756L0.5 76.4753C0.5 72.2823 3.94204 68.9035 8.14996 68.8839C9.49998 68.8777 10.8432 68.8609 12.0219 68.8271Z" fill="url(#paint0_linear_1_2094)" stroke="black"/>
<defs>
<linearGradient id="paint0_linear_1_2094" x1="139.5" y1="98.5061" x2="140.753" y2="8.66045" gradientUnits="userSpaceOnUse">
<stop stop-color="#423EFA"/>
<stop offset="1" stop-color="#B61AFF"/>
</linearGradient>
</defs>
</svg>
